<svg width="24" height="24" viewBox="0 0 24 24" fill="none" xmlns="http://www.w3.org/2000/svg">
<path d="M21 12C21 16.9706 16.9706 21 12 21C7.02944 21 3 16.9706 3 12C3 7.02944 7.02944 3 12 3C16.9706 3 21 7.02944 21 12Z" stroke="black" stroke-width="1.2" class="my-path"/>
<path d="M6.00141 5.5C6.00141 6.25493 7.51697 7.27799 9.50808 7.27799C10.1718 7.27799 11.0014 8.04173 11.0014 8.79666C11.0014 9.55158 10.1718 10.3153 9.50808 10.3153C8.84437 10.3153 7.7866 10.5864 7.7866 11.7943C7.50141 13.5 5.79153 13.318 3.13672 13.0161" stroke="black" stroke-width="1.2" stroke-linecap="round" class="my-path"/>
<path d="M18 18.5001C18 17.7452 16.4844 16.9239 14.4933 16.9239C13.8296 16.9239 13 16.1601 13 15.4052C13 14.6503 13.8296 13.8866 14.4933 13.8866C15.157 13.8866 16.2148 13.6154 16.2148 12.4076C16.5 10.7019 18.2399 10.8902 20.8947 11.1921" stroke="black" stroke-width="1.2" stroke-linecap="round" class="my-path"/>
</svg>