<svg width="28px" height="28px" viewBox="0 0 24 24" fill="none" xmlns="http://www.w3.org/2000/svg">
<path d="M17 21L20.3282 16.0077C20.6616 15.5075 20.8284 15.2574 20.9142 14.974C21 14.6906 21 14.39 21 13.7889V9.5C21 8.67157 20.3284 8 19.5 8C18.6716 8 18 8.67157 18 9.5V12.6667C18 13.3275 18 13.6579 17.8974 13.9658C17.7947 14.2737 17.5965 14.538 17.2 15.0667L16.5 16" stroke="black" stroke-width="1.5" stroke-linecap="round" class="my-path"/>
<path d="M7 21L3.6718 16.0077C3.33835 15.5075 3.17163 15.2574 3.08582 14.974C3 14.6906 3 14.39 3 13.7889V9.5C3 8.67157 3.67157 8 4.5 8C5.32843 8 6 8.67157 6 9.5V12.6667C6 13.3275 6 13.6579 6.10263 13.9658C6.20527 14.2737 6.40351 14.538 6.8 15.0667L7.5 16" stroke="black" stroke-width="1.5" stroke-linecap="round" class="my-path"/>
<path d="M14 20.9996V17.1227C14 15.703 14 14.9931 14.2986 14.5099C14.5496 14.1036 14.9377 13.8005 15.3928 13.6555C15.934 13.4831 16.1227 13.6557 17.5 14" stroke="black" stroke-width="1.5" stroke-linecap="round" class="my-path"/>
<path d="M10.0005 21.0002V17.1233C10.0005 15.7036 10.0005 14.9937 9.70195 14.5105C9.45091 14.1042 9.06278 13.8011 8.60774 13.6561C8.06652 13.4837 7.87733 13.6557 6.5 14" stroke="black" stroke-width="1.5" stroke-linecap="round" class="my-path"/>
<path d="M13.3346 5.66667V3.66667C13.3346 3.29848 13.0362 3 12.668 3H11.3346C10.9664 3 10.668 3.29848 10.668 3.66667V5.66667" stroke="black" stroke-width="1.5" stroke-linecap="round" class="my-path"/>
<path d="M10.666 8.3335V10.3335C10.666 10.7017 10.9645 11.0002 11.3327 11.0002L12.666 11.0002C13.0342 11.0002 13.3327 10.7017 13.3327 10.3335L13.3327 8.3335" stroke="black" stroke-width="1.5" stroke-linecap="round" class="my-path"/>
<path d="M13.334 8.33366H15.334C15.7022 8.33366 16.0007 8.03518 16.0007 7.66699V6.33366C16.0007 5.96547 15.7022 5.66699 15.334 5.66699H13.334" stroke="black" stroke-width="1.5" stroke-linecap="round" class="my-path"/>
<path d="M10.6667 5.6665H8.66667C8.29848 5.6665 8 5.96498 8 6.33317V7.6665C8 8.03469 8.29848 8.33317 8.66667 8.33317L10.6667 8.33317" stroke="black" stroke-width="1.5" stroke-linecap="round" class="my-path"/>
</svg>