<?xml version="1.0" encoding="UTF-8"?>
<svg version="1.1" xmlns="http://www.w3.org/2000/svg" width="750" height="660">
<path d="M0 0 C25.79093927 -0.02336969 51.58187694 -0.04099919 77.37282467 -0.05181217 C89.34824414 -0.05696647 101.32365702 -0.06399269 113.29907227 -0.07543945 C123.73793005 -0.08541272 134.17678306 -0.09185973 144.61564547 -0.09408849 C150.1419166 -0.0953911 155.66817409 -0.09844855 161.19444084 -0.10573006 C166.3990135 -0.11253195 171.60356694 -0.11460847 176.80814362 -0.11310768 C178.71524472 -0.11338213 180.62234649 -0.11536247 182.52944374 -0.11920547 C185.1406191 -0.1242079 187.75172263 -0.12297426 190.36289978 -0.12025452 C191.48502449 -0.12462378 191.48502449 -0.12462378 192.62981838 -0.12908131 C197.81787447 -0.11455529 202.85085635 0.35965776 208 1 C208.20107864 1.582621 208.40215729 2.165242 208.60932922 2.76551819 C209.58961094 5.60546742 210.57016374 8.44532295 211.55078125 11.28515625 C211.92082275 12.35690094 212.29086426 13.42864563 212.67211914 14.53286743 C214.70968003 20.43158708 216.75117422 26.32890715 218.79956055 32.22387695 C219.62681271 34.6049727 220.4540426 36.98607619 221.28125 39.3671875 C221.89508293 41.13369911 221.89508293 41.13369911 222.52131653 42.93589783 C224.60399532 48.93935391 226.66697828 54.94824566 228.68293762 60.97444153 C229.66119664 63.89481986 230.65362412 66.8102468 231.64901733 69.724823 C232.08958843 71.02809556 232.52278768 72.33388458 232.94839478 73.64212036 C233.52648704 75.41729706 234.13153709 77.18362975 234.73828125 78.94921875 C235.05837158 79.91174561 235.37846191 80.87427246 235.70825195 81.8659668 C236.78984848 84.19134413 236.78984848 84.19134413 239.08758831 84.62586117 C242.69762783 85.08961977 246.25799368 85.13469884 249.89033508 85.12025452 C250.67864926 85.12110894 251.46696344 85.12196337 252.27916592 85.12284368 C254.91700949 85.12448899 257.55478926 85.11899265 260.19262695 85.11352539 C262.08496601 85.11324329 263.97730517 85.1134017 265.86964417 85.1139679 C271.0055575 85.11425497 276.14144752 85.10837272 281.27735543 85.10139394 C286.64520414 85.09514548 292.01305337 85.09455542 297.38090515 85.09336853 C307.54512641 85.09025963 317.70933693 85.08205216 327.87355345 85.07201904 C339.44539458 85.06084424 351.01723623 85.055344 362.58908141 85.05032361 C386.3927269 85.03986919 410.19636285 85.02227826 434 85 C434.30547256 84.07914108 434.61094513 83.15828217 434.92567444 82.20951843 C436.06874812 78.79461686 437.27571048 75.40755959 438.49609375 72.01953125 C438.97742764 70.676509 439.45854029 69.33340745 439.93945312 67.99023438 C440.68553453 65.90769835 441.432766 63.82561489 442.18383789 61.74487305 C446.79649583 49.57035491 446.79649583 49.57035491 450 37 C449.67 36.34 449.34 35.68 449 35 C449.99 35 450.98 35 452 35 C452.12149414 34.31518555 452.24298828 33.63037109 452.36816406 32.92480469 C453.51991181 27.59329849 455.3415743 22.45378195 457.07324219 17.28759766 C457.52585379 15.92486444 457.96982681 14.55923274 458.40527344 13.19091797 C459.03675659 11.20863064 459.69480771 9.23702976 460.359375 7.265625 C460.74577148 6.08774414 461.13216797 4.90986328 461.53027344 3.69628906 C463 1 463 1 465.06312084 0.33899784 C468.86782396 -0.10017111 472.63600658 -0.13433799 476.45979309 -0.12025452 C477.30936055 -0.12110894 478.15892802 -0.12196337 479.03423995 -0.12284368 C481.87937481 -0.12449006 484.72445065 -0.11899087 487.56958008 -0.11352539 C489.60970051 -0.11324331 491.64982104 -0.11340166 493.68994141 -0.1139679 C499.22873376 -0.11425506 504.7675045 -0.10837135 510.30629182 -0.10139394 C516.09454886 -0.09514698 521.88280639 -0.09455554 527.67106628 -0.09336853 C538.63214643 -0.09025918 549.59321662 -0.08205111 560.55429238 -0.07201904 C573.03300876 -0.06084562 585.5117256 -0.05534435 597.99044573 -0.05032361 C623.66030268 -0.03986819 649.33015078 -0.02227639 675 0 C674.74914926 0.55494361 674.49829851 1.10988722 674.23984623 1.6816473 C673.07891138 4.25143052 671.91945514 6.82187841 670.76000977 9.39233398 C670.36560951 10.26477501 669.97120926 11.13721603 669.56485748 12.03609467 C665.88003083 20.21014618 662.35872925 28.44779471 658.91235352 36.72485352 C657.9116748 39.12442745 656.9021969 41.52019148 655.89257812 43.91601562 C655.24947218 45.45550878 654.60687294 46.99521373 653.96484375 48.53515625 C653.66497055 49.24438736 653.36509735 49.95361847 653.05613708 50.68434143 C651.84202408 53.62031284 651 55.78942812 651 59 C650.34 59 649.68 59 649 59 C648.7395993 59.81104439 648.7395993 59.81104439 648.47393799 60.63847351 C646.62068049 66.31528384 644.53785276 71.86054082 642.296875 77.39453125 C641.94792175 78.26133011 641.59896851 79.12812897 641.23944092 80.02119446 C637.97297208 88.11337082 634.63348824 96.17479825 631.27478027 104.22903442 C624.36262635 120.81141108 617.53443581 137.42750321 610.75 154.0625 C610.35655396 155.02699066 609.96310791 155.99148132 609.55773926 156.98519897 C607.14946975 162.89009782 604.74459835 168.79637313 602.34155273 174.70339966 C601.16017458 177.60640266 599.97776057 180.50898166 598.79504013 183.41143799 C590.76264589 203.12689132 582.81761961 222.87656536 574.91601562 242.64477539 C573.32093914 246.63531278 571.72429806 250.62522202 570.12724876 254.61497021 C561.68168488 275.71604863 553.3087861 296.84470707 545 318 C543.99598438 320.55490324 542.99176117 323.10972486 541.98754883 325.66455078 C540.21089737 330.18488639 538.43515131 334.70557621 536.66015625 339.2265625 C534.91959818 343.65949677 533.17740327 348.09178129 531.43359375 352.5234375 C525.78245208 366.88883732 520.16076746 381.26549163 514.55453491 395.64846802 C510.43756157 406.2101689 506.30907724 416.7672102 502.16015625 427.31640625 C493.02702245 450.54471297 483.96067729 473.79488328 475.08642578 497.12353516 C474.39642181 498.93532152 473.70616051 500.74700991 473.015625 502.55859375 C472.68557465 503.42470276 472.35552429 504.29081177 472.01547241 505.1831665 C469.26605606 512.36823363 466.41660456 519.51154639 463.51226807 526.63536072 C463.03971588 527.80211082 463.03971588 527.80211082 462.55761719 528.99243164 C462.28020691 529.67213516 462.00279663 530.35183868 461.71697998 531.05213928 C460.99449006 533.01496916 460.46879544 534.96306358 460 537 C422.54905637 538.09635276 422.54905637 538.09635276 404.6875 538.125 C403.52186523 538.12951172 402.35623047 538.13402344 401.15527344 538.13867188 C400.09727539 538.13673828 399.03927734 538.13480469 397.94921875 538.1328125 C397.03487061 538.13168457 396.12052246 538.13055664 395.1784668 538.12939453 C393 538 393 538 391 537 C390.67 537.66 390.34 538.32 390 539 C388.84371094 538.83757813 387.68742187 538.67515625 386.49609375 538.5078125 C380.07355438 537.79573468 373.6394101 537.85013078 367.1862793 537.86962891 C365.04273608 537.87504998 362.89939673 537.8696238 360.75585938 537.86328125 C359.39062454 537.86394103 358.02538983 537.86522011 356.66015625 537.8671875 C354.81369507 537.86887939 354.81369507 537.86887939 352.92993164 537.87060547 C350.06487905 537.79784547 350.06487905 537.79784547 348 539 C348 538.34 348 537.68 348 537 C347.13375 537.350625 346.2675 537.70125 345.375 538.0625 C341.61015234 539.10829102 339.80630783 538.65375759 336 538 C333.33032915 537.91886692 330.68897605 537.88327689 328.02050781 537.90234375 C327.24209534 537.90380402 326.46368286 537.90526428 325.66168213 537.9067688 C323.97573458 537.9105628 322.28979097 537.91666665 320.60385895 537.92483521 C317.90783393 537.93771639 315.21185887 537.94414721 312.51580811 537.94897461 C305.80209807 537.96228373 299.08843399 537.98614813 292.37475586 538.01037598 C285.81755213 538.03365234 279.26036257 538.05212663 272.703125 538.0625 C271.34336296 538.06478104 271.34336296 538.06478104 269.95613098 538.06710815 C255.28197784 538.08308293 240.65564985 537.79120203 226 537 C225.01089059 534.69722965 224.02183831 532.39443519 223.03320312 530.09146118 C222.26954348 528.31464876 221.50279904 526.53916144 220.734375 524.7644043 C220.24710937 523.61838745 220.24710937 523.61838745 219.75 522.44921875 C219.41484375 521.66893311 219.0796875 520.88864746 218.734375 520.0847168 C218 518 218 518 218 515 C217.01 515 216.02 515 215 515 C214.7834375 513.39125 214.7834375 513.39125 214.5625 511.75 C214.16250558 509.08337051 213.72408076 506.58600271 213 504 C212.01 504 211.02 504 210 504 C209.938125 502.906875 209.87625 501.81375 209.8125 500.6875 C209.22841667 496.18616447 207.63385781 492.62883009 205.67578125 488.5625 C203.38781042 483.69856201 201.29386598 478.757252 199.1875 473.8125 C198.77822266 472.85448486 198.36894531 471.89646973 197.94726562 470.90942383 C196.96370997 468.6067636 195.98130766 466.30361892 195 464 C194.34 464 193.68 464 193 464 C192.87882813 463.34773438 192.75765625 462.69546875 192.6328125 462.0234375 C191.71056011 457.21353658 190.69832723 452.60974535 189 448 C187.35 447.67 185.7 447.34 184 447 C184 446.34 184 445.68 184 445 C183.67 444.34 183.34 443.68 183 443 C183.19070068 442.25637207 183.38140137 441.51274414 183.57788086 440.74658203 C184.1286459 437.16294602 183.22262086 435.35146377 181.75390625 432.0546875 C181.24972168 430.90331299 180.74553711 429.75193848 180.22607422 428.56567383 C179.67185541 427.33531136 179.11732479 426.10508932 178.5625 424.875 C178.00664705 423.6186695 177.45212899 422.36174756 176.89892578 421.10424805 C176.06532661 419.21025765 175.23065258 417.31682014 174.39068604 415.42564392 C171.60281443 409.14439116 168.9805161 402.79717679 166.41235352 396.42333984 C165.0455349 392.50864542 165.0455349 392.50864542 162 390 C161.63729412 388.00511766 161.30830925 386.00401011 161 384 C160.3400321 382.33066942 159.67441131 380.6635479 159 379 C159 378.01 159 377.02 159 376 C158.34 376 157.68 376 157 376 C155.02 370.555 155.02 370.555 153 365 C152.34 365 151.68 365 151 365 C150.88785156 363.60201172 150.88785156 363.60201172 150.7734375 362.17578125 C150.00776292 356.84158168 147.76482447 352.09352162 145.625 347.1875 C145.22539062 346.23423828 144.82578125 345.28097656 144.4140625 344.29882812 C143.82625 342.93467773 143.82625 342.93467773 143.2265625 341.54296875 C142.69409912 340.3058313 142.69409912 340.3058313 142.15087891 339.04370117 C141.03039565 336.69322926 141.03039565 336.69322926 138 335 C137.63557767 333.33985384 137.30027117 331.67293936 137 330 C136.34 329.67 135.68 329.34 135 329 C135.99 329 136.98 329 138 329 C137.71914551 328.36835938 137.43829102 327.73671875 137.14892578 327.0859375 C130.2186587 311.47667063 123.49965448 295.79341329 117 280 C116.34 280 115.68 280 115 280 C114.31292445 277.50935112 114 275.62113708 114 273 C113.12747681 270.73525401 112.21193689 268.53511211 111.2265625 266.3203125 C110.94275726 265.67053436 110.65895203 265.02075623 110.36654663 264.35128784 C109.45782579 262.27356618 108.54164585 260.19923585 107.625 258.125 C106.71712434 256.05722163 105.81077818 253.98877944 104.90487671 251.9201355 C104.34097145 250.63393221 103.77563396 249.3483556 103.20864868 248.06350708 C101.74147865 244.73251022 100.32871823 241.38867199 99 238 C98.34 238 97.68 238 97 238 C96.86722656 237.32453125 96.73445313 236.6490625 96.59765625 235.953125 C96.33275391 234.61507812 96.33275391 234.61507812 96.0625 233.25 C95.80146484 231.92742187 95.80146484 231.92742187 95.53515625 230.578125 C95.07631512 228.36764947 94.56663926 226.18487932 94 224 C93.01 224 92.02 224 91 224 C90.93683594 223.46375 90.87367188 222.9275 90.80859375 222.375 C89.73542118 215.50669558 87.2763994 209.62558028 84.38842773 203.359375 C82 198.16883555 82 198.16883555 82 196 C81.34 195.67 80.68 195.34 80 195 C79.28727722 193.26400757 79.28727722 193.26400757 78.62182617 191.02490234 C77.05972316 186.07110615 75.1196459 181.36231407 73.05078125 176.6015625 C72.67447067 175.72712494 72.2981601 174.85268738 71.91044617 173.95175171 C70.71457851 171.17466601 69.51376314 168.39975548 68.3125 165.625 C67.13472294 162.89621181 65.95801275 160.16696723 64.7819519 157.43743896 C64.00562459 155.63665151 63.2280656 153.83639451 62.44924927 152.03668213 C60.49878805 147.52126955 58.57689065 142.99667665 56.70458984 138.44824219 C56.34028366 137.56687592 55.97597748 136.68550964 55.60063171 135.7774353 C54.91008908 134.10178228 54.22510666 132.42382401 53.54646301 130.74331665 C52.13852438 126.65156947 52.13852438 126.65156947 49 124 C48.63958899 122.00470177 48.31062298 120.00365278 48 118 C47.35371094 116.19118893 46.64471518 114.4038582 45.8828125 112.640625 C45.22792847 111.1103064 45.22792847 111.1103064 44.55981445 109.54907227 C44.08632568 108.46037842 43.61283691 107.37168457 43.125 106.25 C42.12091997 103.91023082 41.11701882 101.57038486 40.11328125 99.23046875 C39.59717285 98.03341309 39.08106445 96.83635742 38.54931641 95.60302734 C36.11146325 89.93365501 33.71276943 84.24786066 31.3125 78.5625 C30.40633456 76.42053714 29.50008614 74.27860938 28.59375 72.13671875 C25.05257231 63.76199161 21.52439585 55.38180102 18 47 C16.515 47.495 16.515 47.495 15 48 C15 46.68 15 45.36 15 44 C15.66 44 16.32 44 17 44 C16.24203125 42.30230469 16.24203125 42.30230469 15.46875 40.5703125 C14.81230711 39.08862711 14.15606763 37.60685159 13.5 36.125 C13.16613281 35.37863281 12.83226562 34.63226563 12.48828125 33.86328125 C12.17246094 33.14785156 11.85664062 32.43242188 11.53125 31.6953125 C11.23798828 31.03547363 10.94472656 30.37563477 10.64257812 29.69580078 C10 28 10 28 10 26 C9.34 25.67 8.68 25.34 8 25 C7.31533838 22.94601515 6.63859186 20.88908405 6 18.8203125 C4.40357699 14.31790073 2.23152628 10.0949315 0.109375 5.8203125 C-1 3 -1 3 0 0 Z M91 219 C92 221 92 221 92 221 Z M92 221 C93 223 93 223 93 223 Z M138 330 C139 332 139 332 139 332 Z M185 440 C186 442 186 442 186 442 Z M187 445 C188 447 188 447 188 447 Z M211 501 C212 503 212 503 212 503 Z " fill="#FEFEFE" transform="translate(43,71)"/>
<path d="M0 0 C25.79093927 -0.02336969 51.58187694 -0.04099919 77.37282467 -0.05181217 C89.34824414 -0.05696647 101.32365702 -0.06399269 113.29907227 -0.07543945 C123.73793005 -0.08541272 134.17678306 -0.09185973 144.61564547 -0.09408849 C150.1419166 -0.0953911 155.66817409 -0.09844855 161.19444084 -0.10573006 C166.3990135 -0.11253195 171.60356694 -0.11460847 176.80814362 -0.11310768 C178.71524472 -0.11338213 180.62234649 -0.11536247 182.52944374 -0.11920547 C185.1406191 -0.1242079 187.75172263 -0.12297426 190.36289978 -0.12025452 C191.48502449 -0.12462378 191.48502449 -0.12462378 192.62981838 -0.12908131 C197.81787447 -0.11455529 202.85085635 0.35965776 208 1 C208.20107864 1.582621 208.40215729 2.165242 208.60932922 2.76551819 C209.58961094 5.60546742 210.57016374 8.44532295 211.55078125 11.28515625 C211.92082275 12.35690094 212.29086426 13.42864563 212.67211914 14.53286743 C214.70968003 20.43158708 216.75117422 26.32890715 218.79956055 32.22387695 C219.62681271 34.6049727 220.4540426 36.98607619 221.28125 39.3671875 C221.89508293 41.13369911 221.89508293 41.13369911 222.52131653 42.93589783 C224.60399532 48.93935391 226.66697828 54.94824566 228.68293762 60.97444153 C229.66119664 63.89481986 230.65362412 66.8102468 231.64901733 69.724823 C232.08958843 71.02809556 232.52278768 72.33388458 232.94839478 73.64212036 C233.52648704 75.41729706 234.13153709 77.18362975 234.73828125 78.94921875 C235.05837158 79.91174561 235.37846191 80.87427246 235.70825195 81.8659668 C236.78984848 84.19134413 236.78984848 84.19134413 239.08758831 84.62586117 C242.69762783 85.08961977 246.25799368 85.13469884 249.89033508 85.12025452 C250.67864926 85.12110894 251.46696344 85.12196337 252.27916592 85.12284368 C254.91700949 85.12448899 257.55478926 85.11899265 260.19262695 85.11352539 C262.08496601 85.11324329 263.97730517 85.1134017 265.86964417 85.1139679 C271.0055575 85.11425497 276.14144752 85.10837272 281.27735543 85.10139394 C286.64520414 85.09514548 292.01305337 85.09455542 297.38090515 85.09336853 C307.54512641 85.09025963 317.70933693 85.08205216 327.87355345 85.07201904 C339.44539458 85.06084424 351.01723623 85.055344 362.58908141 85.05032361 C386.3927269 85.03986919 410.19636285 85.02227826 434 85 C434.30547256 84.07914108 434.61094513 83.15828217 434.92567444 82.20951843 C436.06874812 78.79461686 437.27571048 75.40755959 438.49609375 72.01953125 C438.97742764 70.676509 439.45854029 69.33340745 439.93945312 67.99023438 C440.68553453 65.90769835 441.432766 63.82561489 442.18383789 61.74487305 C446.79649583 49.57035491 446.79649583 49.57035491 450 37 C449.67 36.34 449.34 35.68 449 35 C449.99 35 450.98 35 452 35 C452.12149414 34.31518555 452.24298828 33.63037109 452.36816406 32.92480469 C453.51991181 27.59329849 455.3415743 22.45378195 457.07324219 17.28759766 C457.52585379 15.92486444 457.96982681 14.55923274 458.40527344 13.19091797 C459.03675659 11.20863064 459.69480771 9.23702976 460.359375 7.265625 C460.74577148 6.08774414 461.13216797 4.90986328 461.53027344 3.69628906 C463 1 463 1 465.06312084 0.33899784 C468.86782396 -0.10017111 472.63600658 -0.13433799 476.45979309 -0.12025452 C477.30936055 -0.12110894 478.15892802 -0.12196337 479.03423995 -0.12284368 C481.87937481 -0.12449006 484.72445065 -0.11899087 487.56958008 -0.11352539 C489.60970051 -0.11324331 491.64982104 -0.11340166 493.68994141 -0.1139679 C499.22873376 -0.11425506 504.7675045 -0.10837135 510.30629182 -0.10139394 C516.09454886 -0.09514698 521.88280639 -0.09455554 527.67106628 -0.09336853 C538.63214643 -0.09025918 549.59321662 -0.08205111 560.55429238 -0.07201904 C573.03300876 -0.06084562 585.5117256 -0.05534435 597.99044573 -0.05032361 C623.66030268 -0.03986819 649.33015078 -0.02227639 675 0 C674.74914926 0.55494361 674.49829851 1.10988722 674.23984623 1.6816473 C673.07891138 4.25143052 671.91945514 6.82187841 670.76000977 9.39233398 C670.36560951 10.26477501 669.97120926 11.13721603 669.56485748 12.03609467 C665.88003083 20.21014618 662.35872925 28.44779471 658.91235352 36.72485352 C657.9116748 39.12442745 656.9021969 41.52019148 655.89257812 43.91601562 C655.24947218 45.45550878 654.60687294 46.99521373 653.96484375 48.53515625 C653.66497055 49.24438736 653.36509735 49.95361847 653.05613708 50.68434143 C651.84202408 53.62031284 651 55.78942812 651 59 C650.34 59 649.68 59 649 59 C648.7395993 59.81104439 648.7395993 59.81104439 648.47393799 60.63847351 C646.62068049 66.31528384 644.53785276 71.86054082 642.296875 77.39453125 C641.94792175 78.26133011 641.59896851 79.12812897 641.23944092 80.02119446 C637.97297208 88.11337082 634.63348824 96.17479825 631.27478027 104.22903442 C624.36262635 120.81141108 617.53443581 137.42750321 610.75 154.0625 C610.35655396 155.02699066 609.96310791 155.99148132 609.55773926 156.98519897 C607.14946975 162.89009782 604.74459835 168.79637313 602.34155273 174.70339966 C601.16017458 177.60640266 599.97776057 180.50898166 598.79504013 183.41143799 C590.76264589 203.12689132 582.81761961 222.87656536 574.91601562 242.64477539 C573.32093914 246.63531278 571.72429806 250.62522202 570.12724876 254.61497021 C561.68168488 275.71604863 553.3087861 296.84470707 545 318 C543.99598438 320.55490324 542.99176117 323.10972486 541.98754883 325.66455078 C540.21089737 330.18488639 538.43515131 334.70557621 536.66015625 339.2265625 C534.91959818 343.65949677 533.17740327 348.09178129 531.43359375 352.5234375 C525.78245208 366.88883732 520.16076746 381.26549163 514.55453491 395.64846802 C510.43756157 406.2101689 506.30907724 416.7672102 502.16015625 427.31640625 C493.02702245 450.54471297 483.96067729 473.79488328 475.08642578 497.12353516 C474.39642181 498.93532152 473.70616051 500.74700991 473.015625 502.55859375 C472.68557465 503.42470276 472.35552429 504.29081177 472.01547241 505.1831665 C469.26605606 512.36823363 466.41660456 519.51154639 463.51226807 526.63536072 C463.03971588 527.80211082 463.03971588 527.80211082 462.55761719 528.99243164 C462.28020691 529.67213516 462.00279663 530.35183868 461.71697998 531.05213928 C460.99449006 533.01496916 460.46879544 534.96306358 460 537 C422.54905637 538.09635276 422.54905637 538.09635276 404.6875 538.125 C403.52186523 538.12951172 402.35623047 538.13402344 401.15527344 538.13867188 C400.09727539 538.13673828 399.03927734 538.13480469 397.94921875 538.1328125 C397.03487061 538.13168457 396.12052246 538.13055664 395.1784668 538.12939453 C393 538 393 538 391 537 C390.67 537.66 390.34 538.32 390 539 C388.84371094 538.83757813 387.68742187 538.67515625 386.49609375 538.5078125 C380.07355438 537.79573468 373.6394101 537.85013078 367.1862793 537.86962891 C365.04273608 537.87504998 362.89939673 537.8696238 360.75585938 537.86328125 C359.39062454 537.86394103 358.02538983 537.86522011 356.66015625 537.8671875 C354.81369507 537.86887939 354.81369507 537.86887939 352.92993164 537.87060547 C350.06487905 537.79784547 350.06487905 537.79784547 348 539 C348 538.34 348 537.68 348 537 C347.13375 537.350625 346.2675 537.70125 345.375 538.0625 C341.61015234 539.10829102 339.80630783 538.65375759 336 538 C333.33032915 537.91886692 330.68897605 537.88327689 328.02050781 537.90234375 C327.24209534 537.90380402 326.46368286 537.90526428 325.66168213 537.9067688 C323.97573458 537.9105628 322.28979097 537.91666665 320.60385895 537.92483521 C317.90783393 537.93771639 315.21185887 537.94414721 312.51580811 537.94897461 C305.80209807 537.96228373 299.08843399 537.98614813 292.37475586 538.01037598 C285.81755213 538.03365234 279.26036257 538.05212663 272.703125 538.0625 C271.34336296 538.06478104 271.34336296 538.06478104 269.95613098 538.06710815 C255.28197784 538.08308293 240.65564985 537.79120203 226 537 C225.01089059 534.69722965 224.02183831 532.39443519 223.03320312 530.09146118 C222.26954348 528.31464876 221.50279904 526.53916144 220.734375 524.7644043 C220.24710937 523.61838745 220.24710937 523.61838745 219.75 522.44921875 C219.41484375 521.66893311 219.0796875 520.88864746 218.734375 520.0847168 C218 518 218 518 218 515 C217.01 515 216.02 515 215 515 C214.7834375 513.39125 214.7834375 513.39125 214.5625 511.75 C214.16250558 509.08337051 213.72408076 506.58600271 213 504 C212.01 504 211.02 504 210 504 C209.938125 502.906875 209.87625 501.81375 209.8125 500.6875 C209.22841667 496.18616447 207.63385781 492.62883009 205.67578125 488.5625 C203.38781042 483.69856201 201.29386598 478.757252 199.1875 473.8125 C198.77822266 472.85448486 198.36894531 471.89646973 197.94726562 470.90942383 C196.96370997 468.6067636 195.98130766 466.30361892 195 464 C194.34 464 193.68 464 193 464 C192.87882813 463.34773438 192.75765625 462.69546875 192.6328125 462.0234375 C191.71056011 457.21353658 190.69832723 452.60974535 189 448 C187.35 447.67 185.7 447.34 184 447 C184 446.34 184 445.68 184 445 C183.67 444.34 183.34 443.68 183 443 C183.19070068 442.25637207 183.38140137 441.51274414 183.57788086 440.74658203 C184.1286459 437.16294602 183.22262086 435.35146377 181.75390625 432.0546875 C181.24972168 430.90331299 180.74553711 429.75193848 180.22607422 428.56567383 C179.67185541 427.33531136 179.11732479 426.10508932 178.5625 424.875 C178.00664705 423.6186695 177.45212899 422.36174756 176.89892578 421.10424805 C176.06532661 419.21025765 175.23065258 417.31682014 174.39068604 415.42564392 C171.60281443 409.14439116 168.9805161 402.79717679 166.41235352 396.42333984 C165.0455349 392.50864542 165.0455349 392.50864542 162 390 C161.63729412 388.00511766 161.30830925 386.00401011 161 384 C160.3400321 382.33066942 159.67441131 380.6635479 159 379 C159 378.01 159 377.02 159 376 C158.34 376 157.68 376 157 376 C155.02 370.555 155.02 370.555 153 365 C152.34 365 151.68 365 151 365 C150.88785156 363.60201172 150.88785156 363.60201172 150.7734375 362.17578125 C150.00776292 356.84158168 147.76482447 352.09352162 145.625 347.1875 C145.22539062 346.23423828 144.82578125 345.28097656 144.4140625 344.29882812 C143.82625 342.93467773 143.82625 342.93467773 143.2265625 341.54296875 C142.69409912 340.3058313 142.69409912 340.3058313 142.15087891 339.04370117 C141.03039565 336.69322926 141.03039565 336.69322926 138 335 C137.63557767 333.33985384 137.30027117 331.67293936 137 330 C136.34 329.67 135.68 329.34 135 329 C135.99 329 136.98 329 138 329 C137.71914551 328.36835938 137.43829102 327.73671875 137.14892578 327.0859375 C130.2186587 311.47667063 123.49965448 295.79341329 117 280 C116.34 280 115.68 280 115 280 C114.31292445 277.50935112 114 275.62113708 114 273 C113.12747681 270.73525401 112.21193689 268.53511211 111.2265625 266.3203125 C110.94275726 265.67053436 110.65895203 265.02075623 110.36654663 264.35128784 C109.45782579 262.27356618 108.54164585 260.19923585 107.625 258.125 C106.71712434 256.05722163 105.81077818 253.98877944 104.90487671 251.9201355 C104.34097145 250.63393221 103.77563396 249.3483556 103.20864868 248.06350708 C101.74147865 244.73251022 100.32871823 241.38867199 99 238 C98.34 238 97.68 238 97 238 C96.86722656 237.32453125 96.73445313 236.6490625 96.59765625 235.953125 C96.33275391 234.61507812 96.33275391 234.61507812 96.0625 233.25 C95.80146484 231.92742187 95.80146484 231.92742187 95.53515625 230.578125 C95.07631512 228.36764947 94.56663926 226.18487932 94 224 C93.01 224 92.02 224 91 224 C90.93683594 223.46375 90.87367188 222.9275 90.80859375 222.375 C89.73542118 215.50669558 87.2763994 209.62558028 84.38842773 203.359375 C82 198.16883555 82 198.16883555 82 196 C81.34 195.67 80.68 195.34 80 195 C79.28727722 193.26400757 79.28727722 193.26400757 78.62182617 191.02490234 C77.05972316 186.07110615 75.1196459 181.36231407 73.05078125 176.6015625 C72.67447067 175.72712494 72.2981601 174.85268738 71.91044617 173.95175171 C70.71457851 171.17466601 69.51376314 168.39975548 68.3125 165.625 C67.13472294 162.89621181 65.95801275 160.16696723 64.7819519 157.43743896 C64.00562459 155.63665151 63.2280656 153.83639451 62.44924927 152.03668213 C60.49878805 147.52126955 58.57689065 142.99667665 56.70458984 138.44824219 C56.34028366 137.56687592 55.97597748 136.68550964 55.60063171 135.7774353 C54.91008908 134.10178228 54.22510666 132.42382401 53.54646301 130.74331665 C52.13852438 126.65156947 52.13852438 126.65156947 49 124 C48.63958899 122.00470177 48.31062298 120.00365278 48 118 C47.35371094 116.19118893 46.64471518 114.4038582 45.8828125 112.640625 C45.22792847 111.1103064 45.22792847 111.1103064 44.55981445 109.54907227 C44.08632568 108.46037842 43.61283691 107.37168457 43.125 106.25 C42.12091997 103.91023082 41.11701882 101.57038486 40.11328125 99.23046875 C39.59717285 98.03341309 39.08106445 96.83635742 38.54931641 95.60302734 C36.11146325 89.93365501 33.71276943 84.24786066 31.3125 78.5625 C30.40633456 76.42053714 29.50008614 74.27860938 28.59375 72.13671875 C25.05257231 63.76199161 21.52439585 55.38180102 18 47 C16.515 47.495 16.515 47.495 15 48 C15 46.68 15 45.36 15 44 C15.66 44 16.32 44 17 44 C16.24203125 42.30230469 16.24203125 42.30230469 15.46875 40.5703125 C14.81230711 39.08862711 14.15606763 37.60685159 13.5 36.125 C13.16613281 35.37863281 12.83226562 34.63226563 12.48828125 33.86328125 C12.17246094 33.14785156 11.85664062 32.43242188 11.53125 31.6953125 C11.23798828 31.03547363 10.94472656 30.37563477 10.64257812 29.69580078 C10 28 10 28 10 26 C9.34 25.67 8.68 25.34 8 25 C7.31533838 22.94601515 6.63859186 20.88908405 6 18.8203125 C4.40357699 14.31790073 2.23152628 10.0949315 0.109375 5.8203125 C-1 3 -1 3 0 0 Z M10 7 C10.81149476 11.45257025 12.2875943 15.3763395 14.078125 19.515625 C14.39685074 20.26295898 14.71557648 21.01029297 15.04396057 21.78027344 C16.10808172 24.27215946 17.17902869 26.76105125 18.25 29.25 C19.00651789 31.01772637 19.76261199 32.78563415 20.51831055 34.55371094 C22.57209218 39.3555305 24.63182967 44.15477504 26.69256592 48.95361328 C28.92489653 54.15505511 31.15156095 59.35892194 33.37890625 64.5625 C39.72210713 79.37784038 46.07088389 94.1907985 52.4375 108.99609375 C56.49179032 118.42933024 60.53173269 127.86780375 64.50390625 137.3359375 C64.96913948 138.44477798 64.96913948 138.44477798 65.44377136 139.57601929 C65.91886894 140.70845566 65.91886894 140.70845566 66.40356445 141.86376953 C67.06067825 143.43002619 67.71782381 144.99626952 68.375 146.5625 C68.70221039 147.34236267 69.02942078 148.12222534 69.36654663 148.92572021 C75.99264024 164.705965 82.76730785 180.42090634 89.55947876 196.13024902 C95.27062677 209.33954739 100.96058087 222.55648359 106.5625 235.8125 C112.15732819 249.04829296 117.84366916 262.24249394 123.57443237 275.41995239 C125.50380672 279.85650946 127.42893295 284.29489104 129.3515625 288.734375 C129.62816711 289.37306015 129.90477173 290.0117453 130.1897583 290.66978455 C130.7459035 291.95399412 131.30203554 293.23820939 131.8581543 294.52243042 C135.51437346 302.96512695 139.17494697 311.40588652 142.84960938 319.84057617 C146.66033396 328.58882776 150.43803231 337.35032307 154.1875 346.125 C162.69583471 366.0268287 171.34700062 385.86716571 179.96966553 405.71963501 C185.12432906 417.58758301 190.27111294 429.45892131 195.41162109 441.33300781 C196.5440041 443.94727045 197.67707123 446.56122808 198.81103516 449.17480469 C200.79214861 453.74090498 202.77170364 458.30767847 204.75 462.875 C205.08002014 463.63684601 205.41004028 464.39869202 205.75006104 465.18362427 C209.76342197 474.45357964 213.74648009 483.73585814 217.69140625 493.03515625 C218.07914215 493.94906128 218.46687805 494.86296631 218.86636353 495.80456543 C220.74934398 500.24504007 222.6291394 504.68683468 224.50488281 509.13037109 C225.18683273 510.74186885 225.86879808 512.35336007 226.55078125 513.96484375 C226.85633438 514.69131607 227.16188751 515.41778839 227.47669983 516.16627502 C227.76580734 516.84866745 228.05491486 517.53105988 228.3527832 518.23413086 C228.59986526 518.81980331 228.84694733 519.40547577 229.10151672 520.00889587 C230.32055202 522.71036653 231.67455737 525.34911475 233 528 C305.27 528 377.54 528 452 528 C455.18849086 520.34762193 458.36005212 512.69654195 461.4375 505 C462.07691528 503.40140137 462.07691528 503.40140137 462.72924805 501.77050781 C466.02131459 493.51252201 469.25061096 485.23129954 472.46298218 476.94207764 C487.33395678 438.56933251 502.62700401 400.36143143 517.93174744 362.16007996 C521.09835048 354.2548852 524.25972233 346.34761168 527.41897583 338.43947792 C565.33797802 243.52259344 565.33797802 243.52259344 583.48632812 199.73974609 C588.0116828 188.82223327 592.50250972 177.89203437 596.9375 166.9375 C605.95280182 144.67823081 615.19584898 122.51390802 624.43969727 100.34887695 C628.24686148 91.21838697 632.03756743 82.08137146 635.8125 72.9375 C641.8340694 58.35430778 647.93323366 43.80368824 654.03442383 29.25366211 C654.41443039 28.34708359 654.79443695 27.44050507 655.18595886 26.50645447 C655.90206694 24.79817816 656.61852783 23.09004969 657.33540344 21.38209534 C657.96059733 19.89067072 658.5839332 18.39846506 659.20489502 16.90527344 C659.87053669 15.31022696 660.54962808 13.72080219 661.23193359 12.1328125 C662.16940931 9.90739006 662.16940931 9.90739006 662 7 C598.31 7 534.62 7 469 7 C466.4879729 12.65206097 464.1713491 18.04672999 462.25097656 23.87475586 C462.00655319 24.60437531 461.76212982 25.33399475 461.51029968 26.08572388 C460.71598936 28.46064905 459.92812712 30.83765326 459.140625 33.21484375 C458.58614265 34.87881018 458.03134826 36.54267265 457.47625732 38.20643616 C456.32036441 41.67420414 455.16755392 45.14297611 454.01708984 48.61254883 C452.54043327 53.06533709 451.05705638 57.5158514 449.57153702 61.96568966 C448.42830948 65.39203879 447.28806723 68.81937525 446.14879608 72.2470417 C445.60255768 73.88960994 445.05550714 75.53190832 444.50763702 77.17393303 C443.74594081 79.45865237 442.98814182 81.74462657 442.23144531 84.03100586 C441.89021889 85.05096901 441.89021889 85.05096901 441.542099 86.09153748 C440.38400607 89.47397134 440.38400607 89.47397134 440 93 C371.36 92.67 302.72 92.34 232 92 C227.05 77.48 222.1 62.96 217 48 C213.48661688 37.81726701 213.48661688 37.81726701 209.94189453 27.64575195 C209.06849055 25.1510951 208.20033627 22.65463889 207.33203125 20.15820312 C206.7659246 18.53895773 206.19953315 16.91981186 205.6328125 15.30078125 C205.25178879 14.20314201 205.25178879 14.20314201 204.86306763 13.08332825 C203.88172711 9.78461786 203.88172711 9.78461786 202 7 C199.52108029 6.90228493 197.07005223 6.87004043 194.59068298 6.87974548 C193.80578651 6.87889106 193.02089003 6.87803663 192.21220881 6.87715632 C189.56194141 6.87549913 186.91173625 6.88102676 184.26147461 6.88647461 C182.36972556 6.88675646 180.4779764 6.8865988 178.58622742 6.8860321 C173.4335489 6.88574403 168.28089345 6.89164235 163.12822032 6.89860606 C157.74967104 6.90483796 152.3711213 6.90544327 146.99256897 6.90663147 C136.79988176 6.90974527 126.60720521 6.91795931 116.41452271 6.92798096 C104.81375432 6.93914059 93.21298543 6.94465217 81.61221302 6.94967639 C57.74146942 6.96014189 33.87073531 6.97774227 10 7 Z M91 219 C92 221 92 221 92 221 Z M92 221 C93 223 93 223 93 223 Z M138 330 C139 332 139 332 139 332 Z M185 440 C186 442 186 442 186 442 Z M187 445 C188 447 188 447 188 447 Z M211 501 C212 503 212 503 212 503 Z " fill="#090909" transform="translate(43,71)"/>
<path d="M0 0 C40.92 0 81.84 0 124 0 C120.62474707 11.25084309 120.62474707 11.25084309 118.77026367 16.72680664 C118.14686852 18.57162125 118.14686852 18.57162125 117.51087952 20.45370483 C117.06328484 21.77253631 116.61564669 23.09135303 116.16796875 24.41015625 C115.694843 25.80802795 115.22185951 27.2059478 114.74900818 28.60391235 C113.49085331 32.32202599 112.23049288 36.03938818 110.96955109 39.75655746 C109.91870286 42.85507067 108.86898563 45.95396657 107.81922913 49.05284977 C104.76682911 58.06318367 101.71043105 67.07215725 98.65177155 76.08036804 C98.05215428 77.84639248 97.45267575 79.61246402 96.85321045 81.37854004 C92.90049084 93.02227196 88.93012088 104.65979723 84.93218994 116.28808594 C84.26870063 118.21829985 83.6056172 120.1486533 82.94281006 122.07910156 C80.62225287 128.83768817 78.2964409 135.59443289 75.96429443 142.34902954 C75.20420029 144.55215864 74.44542384 146.75574284 73.68804932 148.95980835 C72.63589749 152.020184 71.57840406 155.0786631 70.51953125 158.13671875 C70.2076738 159.04719971 69.89581635 159.95768066 69.57450867 160.89575195 C67.98989197 165.45323604 66.28381341 169.74730683 64 174 C61.10408354 171.5359242 60.09534159 169.13247224 58.83374023 165.57788086 C58.43087799 164.45619507 58.02801575 163.33450928 57.61294556 162.17883301 C57.18250946 160.95321655 56.75207336 159.7276001 56.30859375 158.46484375 C55.84755229 157.17164424 55.38573275 155.87872189 54.92318726 154.58605957 C53.9353586 151.82040245 52.95285473 149.05293389 51.97451782 146.28390503 C50.42529065 141.89922065 48.86436848 137.51875839 47.30151367 133.13891602 C45.18823297 127.21381435 43.07941101 121.28714686 40.97363281 115.359375 C37.30390679 105.03198436 33.59817694 94.71763365 29.8822937 84.4067688 C28.81368303 81.44078356 27.74667973 78.47422394 26.67993164 75.50756836 C22.86284302 64.89912869 19.02105241 54.29990068 15.15508842 43.70918465 C14.44679177 41.76866097 13.73885471 39.82800647 13.03102112 37.88731384 C10.75644299 31.65175246 8.47848142 25.41745771 6.19458008 19.18530273 C5.37699023 16.94649771 4.55951966 14.70764912 3.7421875 12.46875 C3.1717849 10.91801537 3.1717849 10.91801537 2.58985901 9.33595276 C2.24680222 8.39428757 1.90374542 7.45262238 1.55029297 6.48242188 C1.2492868 5.66060425 0.94828064 4.83878662 0.63815308 3.99206543 C0 2 0 2 0 0 Z " fill="#010101" transform="translate(317,278)"/>
<path d="M0 0 C0.66 0 1.32 0 2 0 C20.80859375 32.6015625 20.80859375 32.6015625 22.65795898 35.80737305 C23.89547071 37.95222935 25.13326798 40.09692093 26.37133789 42.24145508 C29.50420171 47.66890245 32.63208573 53.0991052 35.75 58.53515625 C42.84361533 70.88883254 50.04037778 83.16716951 57.4296875 95.34594727 C58.02910156 96.33651123 58.62851562 97.3270752 59.24609375 98.34765625 C59.77904053 99.22429932 60.3119873 100.10094238 60.86108398 101.00415039 C62 103 62 103 62 104 C22.07 104 -17.86 104 -59 104 C-50.97928711 89.29535971 -42.85835728 74.69443515 -34.38916016 60.24414062 C-29.22970526 51.42803883 -24.19505354 42.54533299 -19.18359375 33.64453125 C-14.57749414 25.46554228 -9.91002403 17.3216011 -5.24560547 9.17578125 C-3.49520969 6.11824946 -1.74751493 3.05917908 0 0 Z " fill="#E9000D" transform="translate(379,453)"/>
<path d="M0 0 C9.70981043 5.69098875 16.9468408 13.67727907 20.296875 24.515625 C22.02508115 33.39155754 21.01022697 42.83021569 16.48046875 50.69921875 C10.24865516 59.59686371 2.45232631 66.2385954 -8.30078125 68.58203125 C-20.30434282 69.85935431 -30.58331645 66.62485878 -39.92578125 59.08203125 C-46.68899439 52.84536585 -50.70491487 44.40011774 -51.50390625 35.2578125 C-51.73175465 23.77045563 -48.18458039 15.03449787 -40.30078125 6.58203125 C-28.65715783 -2.62071927 -14.05839466 -5.94697412 0 0 Z " fill="#010101" transform="translate(566.30078125,191.41796875)"/>
<path d="M0 0 C7.41457987 5.32490201 13.15763809 12.63150859 15.48828125 21.52734375 C16.58136219 33.67833648 15.14318097 43.90056047 7.3125 53.64453125 C-0.3601426 61.56361847 -9.02845791 65.55563491 -19.94921875 65.96484375 C-26.20919613 65.79723085 -31.01065769 64.46614098 -36.51171875 61.52734375 C-37.29417969 61.11484375 -38.07664063 60.70234375 -38.8828125 60.27734375 C-46.90686155 55.51433318 -52.53847001 47.93550179 -55.07421875 38.93359375 C-57.00279016 28.32645101 -54.79622016 19.73140197 -49.82421875 10.33984375 C-36.88288033 -5.3996219 -18.25388507 -10.70251116 0 0 Z " fill="#010202" transform="translate(227.51171875,199.47265625)"/>
<path d="M0 0 C0.99 0 1.98 0 3 0 C3 0.99 3 1.98 3 3 C1.68 2.67 0.36 2.34 -1 2 C-0.67 1.34 -0.34 0.68 0 0 Z " fill="#676665" transform="translate(107,233)"/>
<path d="M0 0 C0.99 0.33 1.98 0.66 3 1 C2.67 1.66 2.34 2.32 2 3 C1.34 3 0.68 3 0 3 C0 2.01 0 1.02 0 0 Z " fill="#5D5F5F" transform="translate(202,456)"/>
<path d="M0 0 C0.66 0.99 1.32 1.98 2 3 C1.01 3 0.02 3 -1 3 C-0.67 2.01 -0.34 1.02 0 0 Z " fill="#5F5E5D" transform="translate(219,493)"/>
<path d="M0 0 C0.99 0.495 0.99 0.495 2 1 C2 1.99 2 2.98 2 4 C1.34 3.67 0.68 3.34 0 3 C0 2.01 0 1.02 0 0 Z " fill="#616161" transform="translate(195,437)"/>
<path d="M0 0 C0.99 1.485 0.99 1.485 2 3 C1.34 3.66 0.68 4.32 0 5 C0 3.35 0 1.7 0 0 Z " fill="#696A68" transform="translate(85,178)"/>
<path d="M0 0 C0.99 0.495 0.99 0.495 2 1 C2 1.66 2 2.32 2 3 C1.34 3 0.68 3 0 3 C0 2.01 0 1.02 0 0 Z " fill="#61605F" transform="translate(186,416)"/>
<path d="M0 0 C0.66 1.32 1.32 2.64 2 4 C1.34 3.67 0.68 3.34 0 3 C0 2.01 0 1.02 0 0 Z " fill="#696A6A" transform="translate(67,135)"/>
<path d="M0 0 C0.33 0.99 0.66 1.98 1 3 C0.34 2.67 -0.32 2.34 -1 2 C-0.67 1.34 -0.34 0.68 0 0 Z " fill="#616161" transform="translate(245,553)"/>
<path d="M0 0 C0.99 1.485 0.99 1.485 2 3 C1.34 3 0.68 3 0 3 C0 2.01 0 1.02 0 0 Z " fill="#616060" transform="translate(188,420)"/>
<path d="M0 0 C0 3 0 3 0 3 Z " fill="#656565" transform="translate(151,332)"/>
<path d="M0 0 C0 3 0 3 0 3 Z " fill="#686866" transform="translate(83,174)"/>
<path d="M0 0 C0.99 0.495 0.99 0.495 2 1 C1.67 1.66 1.34 2.32 1 3 C0.67 2.01 0.34 1.02 0 0 Z " fill="#6A6867" transform="translate(474,153)"/>
<path d="M0 0 C0.33 0.99 0.66 1.98 1 3 C0.34 2.67 -0.32 2.34 -1 2 C-0.67 1.34 -0.34 0.68 0 0 Z " fill="#5F5F5F" transform="translate(717,73)"/>
<path d="M0 0 C0.66 0 1.32 0 2 0 C1.67 0.66 1.34 1.32 1 2 C0.67 1.34 0.34 0.68 0 0 Z " fill="#615F62" transform="translate(238,539)"/>
<path d="M0 0 C3 1 3 1 3 1 Z " fill="#60605E" transform="translate(221,502)"/>
<path d="M0 0 C0.66 0 1.32 0 2 0 C1.67 0.66 1.34 1.32 1 2 C0.67 1.34 0.34 0.68 0 0 Z " fill="#60605E" transform="translate(220,498)"/>
<path d="" fill="#626060" transform="translate(0,0)"/>
<path d="M0 0 C0.66 0.66 1.32 1.32 2 2 C1.34 2 0.68 2 0 2 C0 1.34 0 0.68 0 0 Z " fill="#666564" transform="translate(174,389)"/>
<path d="M0 0 C0.33 0.66 0.66 1.32 1 2 C0.34 1.67 -0.32 1.34 -1 1 C-0.67 0.67 -0.34 0.34 0 0 Z " fill="#646565" transform="translate(173,385)"/>
<path d="M0 0 C0.66 0.66 1.32 1.32 2 2 C1.34 2 0.68 2 0 2 C0 1.34 0 0.68 0 0 Z " fill="#626261" transform="translate(163,362)"/>
<path d="" fill="#646563" transform="translate(0,0)"/>
<path d="M0 0 C0.66 0.66 1.32 1.32 2 2 C1.34 2 0.68 2 0 2 C0 1.34 0 0.68 0 0 Z " fill="#646564" transform="translate(123,268)"/>
<path d="" fill="#6A6767" transform="translate(0,0)"/>
<path d="" fill="#5A595B" transform="translate(0,0)"/>
<path d="M0 0 C2 1 2 1 2 1 Z " fill="#616161" transform="translate(383,614)"/>
<path d="" fill="#616160" transform="translate(0,0)"/>
<path d="" fill="#636261" transform="translate(0,0)"/>
<path d="" fill="#636262" transform="translate(0,0)"/>
<path d="" fill="#616060" transform="translate(0,0)"/>
<path d="M0 0 C2 1 2 1 2 1 Z " fill="#5F5F5E" transform="translate(528,550)"/>
<path d="" fill="#61615F" transform="translate(0,0)"/>
<path d="" fill="#61605E" transform="translate(0,0)"/>
<path d="M0 0 C2 1 2 1 2 1 Z " fill="#616060" transform="translate(541,509)"/>
<path d="" fill="#5D5C5B" transform="translate(0,0)"/>
<path d="" fill="#60605F" transform="translate(0,0)"/>
<path d="" fill="#61605F" transform="translate(0,0)"/>
<path d="" fill="#5E5D5D" transform="translate(0,0)"/>
<path d="M0 0 C2 1 2 1 2 1 Z " fill="#5F5E5E" transform="translate(205,462)"/>
<path d="" fill="#605F60" transform="translate(0,0)"/>
<path d="" fill="#616160" transform="translate(0,0)"/>
<path d="" fill="#626362" transform="translate(0,0)"/>
<path d="" fill="#646363" transform="translate(0,0)"/>
<path d="" fill="#616060" transform="translate(0,0)"/>
<path d="" fill="#656363" transform="translate(0,0)"/>
<path d="" fill="#636260" transform="translate(0,0)"/>
<path d="M0 0 C2 1 2 1 2 1 Z " fill="#656665" transform="translate(130,290)"/>
<path d="" fill="#636361" transform="translate(0,0)"/>
<path d="M0 0 C2 1 2 1 2 1 Z " fill="#686666" transform="translate(126,277)"/>
<path d="" fill="#676666" transform="translate(0,0)"/>
<path d="" fill="#696967" transform="translate(0,0)"/>
<path d="" fill="#646363" transform="translate(0,0)"/>
<path d="" fill="#666465" transform="translate(0,0)"/>
<path d="" fill="#6A6969" transform="translate(0,0)"/>
<path d="" fill="#656664" transform="translate(0,0)"/>
<path d="" fill="#656462" transform="translate(0,0)"/>
<path d="" fill="#6C6B69" transform="translate(0,0)"/>
<path d="" fill="#676765" transform="translate(0,0)"/>
<path d="" fill="#6D6C6C" transform="translate(0,0)"/>
<path d="" fill="#686665" transform="translate(0,0)"/>
<path d="M0 0 C2 1 2 1 2 1 Z " fill="#7B7B7B" transform="translate(427,155)"/>
<path d="M0 0 C2 1 2 1 2 1 Z " fill="#7D7B7B" transform="translate(397,155)"/>
<path d="" fill="#6C6A69" transform="translate(0,0)"/>
<path d="" fill="#6C6967" transform="translate(0,0)"/>
<path d="" fill="#686465" transform="translate(0,0)"/>
<path d="" fill="#6A6968" transform="translate(0,0)"/>
<path d="" fill="#6A6B69" transform="translate(0,0)"/>
<path d="M0 0 C2 1 2 1 2 1 Z " fill="#6D6B6C" transform="translate(263,103)"/>
<path d="M0 0 C2 1 2 1 2 1 Z " fill="#5E605E" transform="translate(50,102)"/>
<path d="" fill="#6B6B6A" transform="translate(0,0)"/>
<path d="" fill="#5F5F5D" transform="translate(0,0)"/>
<path d="M0 0 C2 1 2 1 2 1 Z " fill="#60605F" transform="translate(718,72)"/>
<path d="" fill="#626462" transform="translate(0,0)"/>
<path d="" fill="#5C5A5C" transform="translate(0,0)"/>
<path d="" fill="#5B5D5C" transform="translate(0,0)"/>
<path d="" fill="#666865" transform="translate(0,0)"/>
<path d="" fill="#5F5E5E" transform="translate(0,0)"/>
<path d="" fill="#5F6060" transform="translate(0,0)"/>
<path d="" fill="#5F5E5C" transform="translate(0,0)"/>
<path d="" fill="#5E5E5F" transform="translate(0,0)"/>
<path d="" fill="#696969" transform="translate(0,0)"/>
<path d="" fill="#5E605F" transform="translate(0,0)"/>
<path d="" fill="#5E605D" transform="translate(0,0)"/>
<path d="" fill="#636361" transform="translate(0,0)"/>
<path d="" fill="#666765" transform="translate(0,0)"/>
<path d="" fill="#6B6869" transform="translate(0,0)"/>
<path d="" fill="#676966" transform="translate(0,0)"/>
<path d="" fill="#676767" transform="translate(0,0)"/>
<path d="" fill="#676967" transform="translate(0,0)"/>
<path d="" fill="#676865" transform="translate(0,0)"/>
<path d="" fill="#646563" transform="translate(0,0)"/>
<path d="" fill="#605E5E" transform="translate(0,0)"/>
<path d="" fill="#6D6D6C" transform="translate(0,0)"/>
<path d="" fill="#6C6C6B" transform="translate(0,0)"/>
<path d="" fill="#626364" transform="translate(0,0)"/>
<path d="" fill="#616161" transform="translate(0,0)"/>
<path d="" fill="#5D5D5B" transform="translate(0,0)"/>
<path d="" fill="#60615F" transform="translate(0,0)"/>
<path d="" fill="#646360" transform="translate(0,0)"/>
<path d="" fill="#5F6161" transform="translate(0,0)"/>
<path d="" fill="#616263" transform="translate(0,0)"/>
<path d="" fill="#62605F" transform="translate(0,0)"/>
<path d="" fill="#636665" transform="translate(0,0)"/>
<path d="" fill="#626364" transform="translate(0,0)"/>
<path d="" fill="#626162" transform="translate(0,0)"/>
<path d="" fill="#636263" transform="translate(0,0)"/>
<path d="" fill="#5F6060" transform="translate(0,0)"/>
<path d="" fill="#626262" transform="translate(0,0)"/>
<path d="" fill="#5F5F5F" transform="translate(0,0)"/>
<path d="" fill="#656464" transform="translate(0,0)"/>
<path d="" fill="#636463" transform="translate(0,0)"/>
<path d="" fill="#616261" transform="translate(0,0)"/>
<path d="" fill="#616162" transform="translate(0,0)"/>
<path d="" fill="#5E5E5D" transform="translate(0,0)"/>
<path d="" fill="#626162" transform="translate(0,0)"/>
<path d="" fill="#656461" transform="translate(0,0)"/>
<path d="" fill="#5E5F5F" transform="translate(0,0)"/>
<path d="" fill="#605F5E" transform="translate(0,0)"/>
<path d="" fill="#5F5D5D" transform="translate(0,0)"/>
<path d="" fill="#605E5E" transform="translate(0,0)"/>
<path d="" fill="#63605F" transform="translate(0,0)"/>
<path d="" fill="#616361" transform="translate(0,0)"/>
<path d="" fill="#626163" transform="translate(0,0)"/>
<path d="" fill="#616361" transform="translate(0,0)"/>
<path d="" fill="#605F60" transform="translate(0,0)"/>
<path d="" fill="#656664" transform="translate(0,0)"/>
<path d="" fill="#5F5E5E" transform="translate(0,0)"/>
<path d="" fill="#5A5A5D" transform="translate(0,0)"/>
<path d="" fill="#5F5E5D" transform="translate(0,0)"/>
<path d="" fill="#5C5C5C" transform="translate(0,0)"/>
<path d="" fill="#606061" transform="translate(0,0)"/>
<path d="" fill="#616162" transform="translate(0,0)"/>
<path d="" fill="#5F5F5E" transform="translate(0,0)"/>
<path d="" fill="#5F5E5C" transform="translate(0,0)"/>
<path d="" fill="#626260" transform="translate(0,0)"/>
<path d="" fill="#5F6060" transform="translate(0,0)"/>
<path d="" fill="#656465" transform="translate(0,0)"/>
<path d="" fill="#5C5B5C" transform="translate(0,0)"/>
<path d="" fill="#5D5F5F" transform="translate(0,0)"/>
<path d="" fill="#5F6262" transform="translate(0,0)"/>
<path d="" fill="#606161" transform="translate(0,0)"/>
<path d="" fill="#60605F" transform="translate(0,0)"/>
<path d="" fill="#605F5E" transform="translate(0,0)"/>
<path d="" fill="#636262" transform="translate(0,0)"/>
<path d="" fill="#60605F" transform="translate(0,0)"/>
<path d="" fill="#616161" transform="translate(0,0)"/>
<path d="" fill="#666667" transform="translate(0,0)"/>
<path d="" fill="#636262" transform="translate(0,0)"/>
<path d="" fill="#615F5F" transform="translate(0,0)"/>
<path d="" fill="#626363" transform="translate(0,0)"/>
<path d="" fill="#636363" transform="translate(0,0)"/>
<path d="" fill="#616160" transform="translate(0,0)"/>
<path d="" fill="#5B595A" transform="translate(0,0)"/>
<path d="" fill="#666564" transform="translate(0,0)"/>
<path d="" fill="#676765" transform="translate(0,0)"/>
<path d="" fill="#616160" transform="translate(0,0)"/>
<path d="" fill="#61615F" transform="translate(0,0)"/>
<path d="" fill="#646464" transform="translate(0,0)"/>
<path d="" fill="#646662" transform="translate(0,0)"/>
<path d="" fill="#686866" transform="translate(0,0)"/>
<path d="" fill="#676766" transform="translate(0,0)"/>
<path d="" fill="#635F61" transform="translate(0,0)"/>
<path d="" fill="#666664" transform="translate(0,0)"/>
<path d="" fill="#616263" transform="translate(0,0)"/>
<path d="" fill="#626165" transform="translate(0,0)"/>
<path d="" fill="#666464" transform="translate(0,0)"/>
<path d="" fill="#676865" transform="translate(0,0)"/>
<path d="" fill="#646463" transform="translate(0,0)"/>
<path d="" fill="#62605F" transform="translate(0,0)"/>
<path d="" fill="#666765" transform="translate(0,0)"/>
<path d="" fill="#666666" transform="translate(0,0)"/>
<path d="" fill="#64645F" transform="translate(0,0)"/>
<path d="" fill="#676867" transform="translate(0,0)"/>
<path d="" fill="#61625F" transform="translate(0,0)"/>
<path d="" fill="#626161" transform="translate(0,0)"/>
<path d="" fill="#696867" transform="translate(0,0)"/>
<path d="" fill="#636160" transform="translate(0,0)"/>
<path d="" fill="#6B6868" transform="translate(0,0)"/>
<path d="" fill="#6A6A6A" transform="translate(0,0)"/>
<path d="" fill="#636162" transform="translate(0,0)"/>
<path d="" fill="#686969" transform="translate(0,0)"/>
<path d="" fill="#666562" transform="translate(0,0)"/>
<path d="" fill="#666666" transform="translate(0,0)"/>
<path d="" fill="#656665" transform="translate(0,0)"/>
<path d="" fill="#646566" transform="translate(0,0)"/>
<path d="" fill="#6A6966" transform="translate(0,0)"/>
<path d="" fill="#696769" transform="translate(0,0)"/>
<path d="" fill="#666666" transform="translate(0,0)"/>
<path d="" fill="#666663" transform="translate(0,0)"/>
<path d="" fill="#676867" transform="translate(0,0)"/>
<path d="" fill="#6A6B66" transform="translate(0,0)"/>
<path d="" fill="#666765" transform="translate(0,0)"/>
<path d="" fill="#6A6866" transform="translate(0,0)"/>
<path d="" fill="#686968" transform="translate(0,0)"/>
<path d="" fill="#646463" transform="translate(0,0)"/>
<path d="" fill="#6C6C6C" transform="translate(0,0)"/>
<path d="" fill="#6D6D6B" transform="translate(0,0)"/>
<path d="" fill="#6C6B6B" transform="translate(0,0)"/>
<path d="" fill="#6A6867" transform="translate(0,0)"/>
<path d="" fill="#696866" transform="translate(0,0)"/>
<path d="" fill="#666464" transform="translate(0,0)"/>
<path d="" fill="#6A6A69" transform="translate(0,0)"/>
<path d="" fill="#696967" transform="translate(0,0)"/>
<path d="" fill="#6A6868" transform="translate(0,0)"/>
<path d="" fill="#6A6667" transform="translate(0,0)"/>
<path d="" fill="#656364" transform="translate(0,0)"/>
<path d="" fill="#686768" transform="translate(0,0)"/>
<path d="" fill="#676666" transform="translate(0,0)"/>
<path d="" fill="#696867" transform="translate(0,0)"/>
<path d="" fill="#686768" transform="translate(0,0)"/>
<path d="" fill="#6B6D6C" transform="translate(0,0)"/>
<path d="" fill="#6B6C6B" transform="translate(0,0)"/>
<path d="" fill="#696964" transform="translate(0,0)"/>
<path d="" fill="#757372" transform="translate(0,0)"/>
<path d="" fill="#737472" transform="translate(0,0)"/>
<path d="" fill="#767674" transform="translate(0,0)"/>
<path d="" fill="#7B7B7A" transform="translate(0,0)"/>
<path d="" fill="#7B7B7A" transform="translate(0,0)"/>
<path d="" fill="#797A79" transform="translate(0,0)"/>
<path d="" fill="#7C7A7A" transform="translate(0,0)"/>
<path d="" fill="#7E7C7C" transform="translate(0,0)"/>
<path d="" fill="#7D7E7D" transform="translate(0,0)"/>
<path d="" fill="#7B7C7D" transform="translate(0,0)"/>
<path d="" fill="#7D7B7B" transform="translate(0,0)"/>
<path d="" fill="#7D7C7C" transform="translate(0,0)"/>
<path d="" fill="#7E7C7C" transform="translate(0,0)"/>
<path d="" fill="#797978" transform="translate(0,0)"/>
<path d="" fill="#7A7979" transform="translate(0,0)"/>
<path d="" fill="#7B7A7A" transform="translate(0,0)"/>
<path d="" fill="#787978" transform="translate(0,0)"/>
<path d="" fill="#717271" transform="translate(0,0)"/>
<path d="" fill="#6F706D" transform="translate(0,0)"/>
<path d="" fill="#6F6F6D" transform="translate(0,0)"/>
<path d="" fill="#6C6868" transform="translate(0,0)"/>
<path d="" fill="#72716F" transform="translate(0,0)"/>
<path d="" fill="#757171" transform="translate(0,0)"/>
<path d="" fill="#787677" transform="translate(0,0)"/>
<path d="" fill="#7C7D79" transform="translate(0,0)"/>
<path d="" fill="#787976" transform="translate(0,0)"/>
<path d="" fill="#6F6E6D" transform="translate(0,0)"/>
<path d="" fill="#727071" transform="translate(0,0)"/>
<path d="" fill="#777877" transform="translate(0,0)"/>
<path d="" fill="#777776" transform="translate(0,0)"/>
<path d="" fill="#6E6C6B" transform="translate(0,0)"/>
<path d="" fill="#6F7270" transform="translate(0,0)"/>
<path d="" fill="#69686A" transform="translate(0,0)"/>
<path d="" fill="#6E6D6B" transform="translate(0,0)"/>
<path d="" fill="#727270" transform="translate(0,0)"/>
<path d="" fill="#6C6B69" transform="translate(0,0)"/>
<path d="" fill="#6B6A6A" transform="translate(0,0)"/>
<path d="" fill="#706E70" transform="translate(0,0)"/>
<path d="" fill="#6E6D6D" transform="translate(0,0)"/>
<path d="" fill="#676965" transform="translate(0,0)"/>
<path d="" fill="#656763" transform="translate(0,0)"/>
<path d="" fill="#6A6B6C" transform="translate(0,0)"/>
<path d="" fill="#6D6B6C" transform="translate(0,0)"/>
<path d="" fill="#6D6B6A" transform="translate(0,0)"/>
<path d="" fill="#6D6E6C" transform="translate(0,0)"/>
<path d="" fill="#6B6A6C" transform="translate(0,0)"/>
<path d="" fill="#6E6E6E" transform="translate(0,0)"/>
<path d="" fill="#6C6C6C" transform="translate(0,0)"/>
<path d="" fill="#6E6C6B" transform="translate(0,0)"/>
<path d="" fill="#676968" transform="translate(0,0)"/>
<path d="" fill="#6C6B68" transform="translate(0,0)"/>
<path d="" fill="#656665" transform="translate(0,0)"/>
<path d="" fill="#6B6A69" transform="translate(0,0)"/>
<path d="" fill="#6C6A6A" transform="translate(0,0)"/>
<path d="" fill="#6D6C6D" transform="translate(0,0)"/>
<path d="" fill="#696969" transform="translate(0,0)"/>
<path d="" fill="#696969" transform="translate(0,0)"/>
<path d="" fill="#656566" transform="translate(0,0)"/>
<path d="" fill="#686967" transform="translate(0,0)"/>
<path d="" fill="#69696A" transform="translate(0,0)"/>
<path d="" fill="#646360" transform="translate(0,0)"/>
<path d="" fill="#6C6F6D" transform="translate(0,0)"/>
<path d="" fill="#646062" transform="translate(0,0)"/>
<path d="" fill="#63625F" transform="translate(0,0)"/>
<path d="" fill="#646264" transform="translate(0,0)"/>
<path d="" fill="#656566" transform="translate(0,0)"/>
<path d="" fill="#646665" transform="translate(0,0)"/>
<path d="" fill="#605F5E" transform="translate(0,0)"/>
<path d="" fill="#646667" transform="translate(0,0)"/>
<path d="" fill="#646163" transform="translate(0,0)"/>
<path d="" fill="#616063" transform="translate(0,0)"/>
<path d="" fill="#626060" transform="translate(0,0)"/>
<path d="" fill="#5F5C59" transform="translate(0,0)"/>
<path d="" fill="#616361" transform="translate(0,0)"/>
<path d="" fill="#5F6061" transform="translate(0,0)"/>
<path d="" fill="#616161" transform="translate(0,0)"/>
<path d="" fill="#605F61" transform="translate(0,0)"/>
<path d="" fill="#60615F" transform="translate(0,0)"/>
<path d="" fill="#636363" transform="translate(0,0)"/>
<path d="" fill="#636264" transform="translate(0,0)"/>
<path d="" fill="#7E7E7F" transform="translate(0,0)"/>
</svg>
